<svg xmlns="http://www.w3.org/2000/svg" viewBox="0 0 600 400" width="600" height="400" fill="none">
  <rect width="600" height="400" rx="12" fill="#FFF9F2"/>
  
  <g transform="translate(200, 80)">
    <!-- Red Box -->
    <path d="M 40,150 L 160,150 L 140,300 L 60,300 Z" fill="#8B1E1E"/>
    <path d="M 35,140 L 165,140 L 160,150 L 40,150 Z" fill="#241F1F"/>
    
    <!-- Golden Fries -->
    <rect x="50" y="20" width="12" height="130" rx="3" fill="#F1C40F" transform="rotate(-8 50 20)"/>
    <rect x="70" y="0" width="14" height="150" rx="3" fill="#F39C12" transform="rotate(-3 70 0)"/>
    <rect x="90" y="10" width="12" height="140" rx="3" fill="#F1C40F" transform="rotate(2 90 10)"/>
    <rect x="110" y="25" width="14" height="125" rx="3" fill="#F39C12" transform="rotate(7 110 25)"/>
    <rect x="130" y="40" width="12" height="110" rx="3" fill="#F1C40F" transform="rotate(12 130 40)"/>
  </g>
  
  <rect x="30" y="30" width="90" height="32" rx="6" fill="#8B1E1E"/>
  <text x="75" y="51" font-family="'Inter', sans-serif" font-size="12" font-weight="bold" fill="#FFFFFF" text-anchor="middle">FRIES</text>
</svg>
